<svg viewBox="0 0 16 16" fill="currentColor" xmlns="http://www.w3.org/2000/svg">
  <!-- Outer hexagon structure -->
  <!-- Top diamond -->
  <path d="M8 1L14 4.5L8 8L2 4.5L8 1Z" fill="currentColor" opacity="0.3"/>

  <!-- Left face -->
  <path d="M2 4.5L2 11.5L8 15L8 8L2 4.5Z" fill="currentColor" opacity="0.5"/>

  <!-- Right face -->
  <path d="M8 8L8 15L14 11.5L14 4.5L8 8Z" fill="currentColor" opacity="0.7"/>

  <!-- Inner accent cube -->
  <!-- Top -->
  <path d="M8 6L10.5 7.5L8 9L5.5 7.5L8 6Z" fill="currentColor" opacity="0.4"/>

  <!-- Left -->
  <path d="M5.5 7.5L5.5 10.5L8 12L8 9L5.5 7.5Z" fill="currentColor" opacity="0.6"/>

  <!-- Right -->
  <path d="M8 9L8 12L10.5 10.5L10.5 7.5L8 9Z" fill="currentColor" opacity="0.8"/>
</svg>
